[Header]
FileType HTR
DataType HTRS
FileVersion 1
NumSegments 64
NumFrames 3
DataFrameRate 30
EulerRotationOrder ZYX
CalibrationUnits mm
RotationUnits Degrees
GlobalAxisofGravity Y
BoneLengthAxis Y
ScaleFactor 1.0
[SegmentNames&Hierarchy]
Hips	GLOBAL
Spine	Hips
Spine1	Spine
Spine2	Spine1
Neck	Spine2
Head	Neck
LeftEye	Head
RightEye	Head
LeftShoulder	Spine2
LeftArm	LeftShoulder
LeftForeArm	LeftArm
LeftHand	LeftForeArm
LeftHandThumb1	LeftHand
LeftHandThumb2	LeftHandThumb1
LeftHandThumb3	LeftHandThumb2
LeftHandThumb4	LeftHandThumb3
LeftHandIndex1	LeftHand
LeftHandIndex2	LeftHandIndex1
LeftHandIndex3	LeftHandIndex2
LeftHandIndex4	LeftHandIndex3
LeftHandMiddle1	LeftHand
LeftHandMiddle2	LeftHandMiddle1
LeftHandMiddle3	LeftHandMiddle2
LeftHandMiddle4	LeftHandMiddle3
LeftHandRing1	LeftHand
LeftHandRing2	LeftHandRing1
LeftHandRing3	LeftHandRing2
LeftHandRing4	LeftHandRing3
LeftHandPinky1	LeftHand
LeftHandPinky2	LeftHandPinky1
LeftHandPinky3	LeftHandPinky2
LeftHandPinky4	LeftHandPinky3
RightShoulder	Spine2
RightArm	RightShoulder
RightForeArm	RightArm
RightHand	RightForeArm
RightHandPinky1	RightHand
RightHandPinky2	RightHandPinky1
RightHandPinky3	RightHandPinky2
RightHandPinky4	RightHandPinky3
RightHandRing1	RightHand
RightHandRing2	RightHandRing1
RightHandRing3	RightHandRing2
RightHandRing4	RightHandRing3
RightHandMiddle1	RightHand
RightHandMiddle2	RightHandMiddle1
RightHandMiddle3	RightHandMiddle2
RightHandMiddle4	RightHandMiddle3
RightHandIndex1	RightHand
RightHandIndex2	RightHandIndex1
RightHandIndex3	RightHandIndex2
RightHandIndex4	RightHandIndex3
RightHandThumb1	RightHand
RightHandThumb2	RightHandThumb1
RightHandThumb3	RightHandThumb2
RightHandThumb4	RightHandThumb3
LeftUpLeg	Hips
LeftLeg	LeftUpLeg
LeftFoot	LeftLeg
LeftToeBase	LeftFoot
RightUpLeg	Hips
RightLeg	RightUpLeg
RightFoot	RightLeg
RightToeBase	RightFoot
[BasePosition]
Hips	0	0	0	0	0	0	1
Spine	0	0	0	0	0	0	1
Spine1	0	0	0	0	0	0	1
Spine2	0	0	0	0	0	0	1
Neck	0	0	0	0	0	0	1
Head	0	0	0	0	0	0	1
LeftEye	0	0	0	0	0	0	1
RightEye	0	0	0	0	0	0	1
LeftShoulder	0	0	0	0	0	0	1
LeftArm	0	0	0	0	0	0	1
LeftForeArm	0	0	0	0	0	0	1
LeftHand	0	0	0	0	0	0	1
LeftHandThumb1	0	0	0	0	0	0	1
LeftHandThumb2	0	0	0	0	0	0	1
LeftHandThumb3	0	0	0	0	0	0	1
LeftHandThumb4	0	0	0	0	0	0	1
LeftHandIndex1	0	0	0	0	0	0	1
LeftHandIndex2	0	0	0	0	0	0	1
LeftHandIndex3	0	0	0	0	0	0	1
LeftHandIndex4	0	0	0	0	0	0	1
LeftHandMiddle1	0	0	0	0	0	0	1
LeftHandMiddle2	0	0	0	0	0	0	1
LeftHandMiddle3	0	0	0	0	0	0	1
LeftHandMiddle4	0	0	0	0	0	0	1
LeftHandRing1	0	0	0	0	0	0	1
LeftHandRing2	0	0	0	0	0	0	1
LeftHandRing3	0	0	0	0	0	0	1
LeftHandRing4	0	0	0	0	0	0	1
LeftHandPinky1	0	0	0	0	0	0	1
LeftHandPinky2	0	0	0	0	0	0	1
LeftHandPinky3	0	0	0	0	0	0	1
LeftHandPinky4	0	0	0	0	0	0	1
RightShoulder	0	0	0	0	0	0	1
RightArm	0	0	0	0	0	0	1
RightForeArm	0	0	0	0	0	0	1
RightHand	0	0	0	0	0	0	1
RightHandPinky1	0	0	0	0	0	0	1
RightHandPinky2	0	0	0	0	0	0	1
RightHandPinky3	0	0	0	0	0	0	1
RightHandPinky4	0	0	0	0	0	0	1
RightHandRing1	0	0	0	0	0	0	1
RightHandRing2	0	0	0	0	0	0	1
RightHandRing3	0	0	0	0	0	0	1
RightHandRing4	0	0	0	0	0	0	1
RightHandMiddle1	0	0	0	0	0	0	1
RightHandMiddle2	0	0	0	0	0	0	1
RightHandMiddle3	0	0	0	0	0	0	1
RightHandMiddle4	0	0	0	0	0	0	1
RightHandIndex1	0	0	0	0	0	0	1
RightHandIndex2	0	0	0	0	0	0	1
RightHandIndex3	0	0	0	0	0	0	1
RightHandIndex4	0	0	0	0	0	0	1
RightHandThumb1	0	0	0	0	0	0	1
RightHandThumb2	0	0	0	0	0	0	1
RightHandThumb3	0	0	0	0	0	0	1
RightHandThumb4	0	0	0	0	0	0	1
LeftUpLeg	0	0	0	0	0	0	1
LeftLeg	0	0	0	0	0	0	1
LeftFoot	0	0	0	0	0	0	1
LeftToeBase	0	0	0	0	0	0	1
RightUpLeg	0	0	0	0	0	0	1
RightLeg	0	0	0	0	0	0	1
RightFoot	0	0	0	0	0	0	1
RightToeBase	0	0	0	0	0	0	1
[Hips]
24	1343.598511	930.4718018	13.70706177	33.55477905	83.67180634	27.71574783	1.0
25	1406.249756	923.0267944	12.53046894	17.74746323	83.05332184	11.54327393	1.0
26	1468.914917	924.3933716	11.22827148	-0.8075449467	80.49710083	-7.401184559	1.0
[Spine]
24	0	101.8159943	1.315000057	4.859110832	-21.69361305	0.07826253772	1.0
25	0	101.8159943	1.315000057	4.478145123	-21.03649521	2.009452105	1.0
26	0	101.8159943	1.315000057	4.377274036	-19.72427177	4.391219139	1.0
[Spine1]
24	0	100.8349991	-10.00800037	3.30332756	-7.338506222	0.5609716177	1.0
25	0	100.8349991	-10.00800037	3.291488409	-7.269022942	1.158983827	1.0
26	0	100.8349991	-10.00800037	3.32930851	-6.985958576	1.830257773	1.0
[Spine2]
24	0	91	-13.73399925	3.211223364	-7.377795696	0.6098421812	1.0
25	0	91	-13.73399925	3.20105505	-7.304206371	1.181400895	1.0
26	0	91	-13.73399925	3.239521742	-7.025961399	1.813888431	1.0
[Neck]
24	0	166.7169952	-25.16200066	3.868588686	-5.818246365	-1.638857245	1.0
25	0	166.7169952	-25.16200066	3.890696526	-5.758384705	-1.727270484	1.0
26	0	166.7169952	-25.16200066	3.948566914	-5.632476807	-1.749694586	1.0
[Head]
24	0	96.17900085	16.84999847	-14.10199451	-35.07432556	14.60279846	1.0
25	0	96.17900085	16.84999847	-14.73846626	-34.57680511	13.80740356	1.0
26	0	96.17900085	16.84999847	-14.23146057	-33.72319031	12.19171619	1.0
[LeftEye]
24	30.6760006	64.09500122	92.83599854	0	0	0	1.0
25	30.6760006	64.09500122	92.83599854	0	0	0	1.0
26	30.6760006	64.09500122	92.83599854	0	0	0	1.0
[RightEye]
24	-30.6760006	64.09500122	92.83499908	0	0	0	1.0
25	-30.6760006	64.09500122	92.83499908	0	0	0	1.0
26	-30.6760006	64.09500122	92.83499908	0	0	0	1.0
[LeftShoulder]
24	45.70400238	109.4599991	-26.28000069	-2.431007624	-10.38340092	-9.554933548	1.0
25	45.70400238	109.4599991	-26.28000069	-2.05466938	-10.04116249	-9.799650192	1.0
26	45.70400238	109.4599991	-26.28000069	-1.59357512	-9.593233109	-10.00317764	1.0
[LeftArm]
24	105.923996	-5.24600029	-22.32099915	38.07600403	-29.32830048	-55.90494537	1.0
25	105.923996	-5.24600029	-22.32099915	38.705616	-30.47177315	-59.06045151	1.0
26	105.923996	-5.24600029	-22.32099915	38.45053101	-30.45281792	-62.78778839	1.0
[LeftForeArm]
24	278.414978	-0.0009999999311	0	-2.653200909e-06	-22.75992966	-0.0001938025962	1.0
25	278.414978	-0.0009999999311	0	8.150265671e-07	-21.65343094	-0.0002082751744	1.0
26	278.414978	-0.0009999999311	0	-9.942534689e-07	-20.0358181	-0.000192922671	1.0
[LeftHand]
24	283.2879944	0	0	-3.976499319	-4.491502285	23.15422821	1.0
25	283.2879944	0	0	-5.430836678	-7.221292973	20.94602776	1.0
26	283.2879944	0	0	-6.740938663	-8.34014225	18.26485825	1.0
[LeftHandThumb1]
24	24.6609993	-15.75	26.8239994	0.9464570284	1.151123047	0.2541034818	1.0
25	24.6609993	-15.75	26.8239994	0.9464570284	1.151123047	0.2541034818	1.0
26	24.6609993	-15.75	26.8239994	0.9464570284	1.151123047	0.2541034818	1.0
[LeftHandThumb2]
24	32.29800034	-18.64699936	18.64699936	12.88023472	1.511606097	17.38031387	1.0
25	32.29800034	-18.64699936	18.64699936	15.99940491	4.013005257	17.6055603	1.0
26	32.29800034	-18.64699936	18.64699936	17.54529381	7.846935749	18.87503242	1.0
[LeftHandThumb3]
24	26.52600098	-15.31499958	15.31499958	-2.609997511	-11.96678066	22.01826859	1.0
25	26.52600098	-15.31499958	15.31499958	-3.928794622	-15.01500893	23.46523476	1.0
26	26.52600098	-15.31499958	15.31499958	-5.03196907	-17.4492321	25.21957016	1.0
[LeftHandThumb4]
24	19.54599953	-11.28499985	11.28499985	0	0	0	1.0
25	19.54599953	-11.28499985	11.28499985	0	0	0	1.0
26	19.54599953	-11.28499985	11.28499985	0	0	0	1.0
[LeftHandIndex1]
24	91.09299469	-5.170999527	22.60099792	-1.262915134	-0.6665129662	-23.96072388	1.0
25	91.09299469	-5.170999527	22.60099792	-1.325335741	0.8911265135	-26.60733032	1.0
26	91.09299469	-5.170999527	22.60099792	-1.324002147	1.853339314	-28.15116119	1.0
[LeftHandIndex2]
24	36.76399994	0	0	-0.1277524233	1.215288877	-12.00148487	1.0
25	36.76399994	0	0	-0.1285901517	1.219214678	-12.04092693	1.0
26	36.76399994	0	0	-0.1291278154	1.221751451	-12.06637859	1.0
[LeftHandIndex3]
24	28.83100128	0	0	-0.1329582632	1.239507794	-12.24438763	1.0
25	28.83100128	0	0	-0.133797124	1.243357062	-12.28297997	1.0
26	28.83100128	0	0	-0.1343460828	1.245868325	-12.30825996	1.0
[LeftHandIndex4]
24	23.92700005	0	0	0	0	0	1.0
25	23.92700005	0	0	0	0	0	1.0
26	23.92700005	0	0	0	0	0	1.0
[LeftHandMiddle1]
24	95.33399963	0	0	-1.922917485	3.342902899	-30.22573471	1.0
25	95.33399963	0	0	-2.126852036	4.05580616	-32.52327728	1.0
26	95.33399963	0	0	-2.257374048	4.460742474	-33.95593643	1.0
[LeftHandMiddle2]
24	36.98199844	0	0	-0.3025524914	1.85580647	-18.5174942	1.0
25	36.98199844	0	0	-0.3035039902	1.858643651	-18.54691124	1.0
26	36.98199844	0	0	-0.3033313751	1.858117223	-18.54143906	1.0
[LeftHandMiddle3]
24	29.50900078	0	0	-0.1088530198	1.122745633	-11.07527828	1.0
25	29.50900078	0	0	-0.1094267666	1.125682712	-11.10464001	1.0
26	29.50900078	0	0	-0.1093127653	1.125127316	-11.09911728	1.0
[LeftHandMiddle4]
24	28.3390007	0	0	0	0	0	1.0
25	28.3390007	0	0	0	0	0	1.0
26	28.3390007	0	0	0	0	0	1.0
[LeftHandRing1]
24	91.04499817	-0.4390000105	-18.65100098	-2.00708437	6.990632534	-31.18973351	1.0
25	91.04499817	-0.4390000105	-18.65100098	-2.14669919	7.387692928	-32.76538467	1.0
26	91.04499817	-0.4390000105	-18.65100098	-2.239509106	7.811584473	-33.79658127	1.0
[LeftHandRing2]
24	31.54000092	0	0	-0.4633446932	2.280058622	-22.97120476	1.0
25	31.54000092	0	0	-0.4622127414	2.277389526	-22.94275856	1.0
26	31.54000092	0	0	-0.4636623859	2.280800343	-22.9792099	1.0
[LeftHandRing3]
24	29.37700081	0	0	-0.3323167562	1.942369699	-19.41567802	1.0
25	29.37700081	0	0	-0.3312805891	1.939411998	-19.38496208	1.0
26	29.37700081	0	0	-0.3324442208	1.942709446	-19.41924477	1.0
[LeftHandRing4]
24	26.47500038	0	0	0	0	0	1.0
25	26.47500038	0	0	0	0	0	1.0
26	26.47500038	0	0	0	0	0	1.0
[LeftHandPinky1]
24	80.77799988	-4.887000084	-38.06099701	-2.458247185	3.651266575	-36.13534546	1.0
25	80.77799988	-4.887000084	-38.06099701	-2.570812464	3.666492701	-37.32938385	1.0
26	80.77799988	-4.887000084	-38.06099701	-2.672231913	3.590762854	-38.39372635	1.0
[LeftHandPinky2]
24	36	0	0	-0.4835211337	2.327058077	-23.47321129	1.0
25	36	0	0	-0.4786683619	2.315860033	-23.3534317	1.0
26	36	0	0	-0.478284955	2.314954996	-23.34385872	1.0
[LeftHandPinky3]
24	21.14200211	0	0	-0.2075437903	1.543547392	-15.31517982	1.0
25	21.14200211	0	0	-0.2041979879	1.53128016	-15.1904583	1.0
26	21.14200211	0	0	-0.2039432377	1.530336738	-15.18080521	1.0
[LeftHandPinky4]
24	19.75699997	0	0	0	0	0	1.0
25	19.75699997	0	0	0	0	0	1.0
26	19.75699997	0	0	0	0	0	1.0
[RightShoulder]
24	-45.70000076	109.4620056	-26.28000069	1.248047948	-7.331005573	7.722596169	1.0
25	-45.70000076	109.4620056	-26.28000069	1.183421016	-6.855494022	8.127503395	1.0
26	-45.70000076	109.4620056	-26.28000069	1.121336818	-6.019766331	8.414889336	1.0
[RightArm]
24	-105.9280014	-5.248000145	-22.32099915	14.11415005	-3.248841286	65.50640106	1.0
25	-105.9280014	-5.248000145	-22.32099915	14.51763344	-2.431436539	64.08181763	1.0
26	-105.9280014	-5.248000145	-22.32099915	15.11660385	-1.683716297	62.50133514	1.0
[RightForeArm]
24	-278.414978	0	0	-7.502288099e-06	11.20160103	-5.019212495e-06	1.0
25	-278.414978	0	0	-2.06644404e-06	7.943727493	-2.051919409e-06	1.0
26	-278.414978	0	0	-3.280328656e-06	6.443917274	-1.182133701e-06	1.0
[RightHand]
24	-283.2879944	0	0.0009999999311	6.430904865	-2.216807365	-2.400577307	1.0
25	-283.2879944	0	0.0009999999311	6.44619894	-2.38826704	-3.582834244	1.0
26	-283.2879944	0	0.0009999999311	6.9666605	-3.228196859	-5.01367569	1.0
[RightHandPinky1]
24	-80.76699829	-4.885000229	-38.06000137	-1.558013082	-2.422899485	27.64078903	1.0
25	-80.76699829	-4.885000229	-38.06000137	-1.547207236	-2.420764446	27.49201202	1.0
26	-80.76699829	-4.885000229	-38.06000137	-1.609504223	-1.982760906	28.34781265	1.0
[RightHandPinky2]
24	-36	0	0.0009999999311	-0.3725866675	-1.821451306	23.13814735	1.0
25	-36	0	0.0009999999311	-0.379658252	-1.837947011	23.36004257	1.0
26	-36	0	0.0009999999311	-0.382804513	-1.845218301	23.45812035	1.0
[RightHandPinky3]
24	-21.14200211	0	0	-0.4274799824	-1.944981337	24.78923416	1.0
25	-21.14200211	0	0	-0.4330035448	-1.956917405	24.95158386	1.0
26	-21.14200211	0	0	-0.4349108934	-1.960989237	25.00722885	1.0
[RightHandPinky4]
24	-19.75699997	0	0	0	0	0	1.0
25	-19.75699997	0	0	0	0	0	1.0
26	-19.75699997	0	0	0	0	0	1.0
[RightHandRing1]
24	-91.03599548	-0.4390000105	-18.65100098	-1.805856466	-2.913398027	31.1590786	1.0
25	-91.03599548	-0.4390000105	-18.65100098	-1.813549876	-2.863352299	31.25985718	1.0
26	-91.03599548	-0.4390000105	-18.65100098	-1.867862105	-2.636885166	31.97137451	1.0
[RightHandRing2]
24	-31.54000092	0	0	-0.6746829152	-2.408789873	31.29004097	1.0
25	-31.54000092	0	0	-0.6745111942	-2.408511162	31.28596687	1.0
26	-31.54000092	0	0	-0.6753466725	-2.409857273	31.30563736	1.0
[RightHandRing3]
24	-29.37700081	0	0	-0.7509576678	-2.529914379	33.0603714	1.0
25	-29.37700081	0	0	-0.75077492	-2.529640436	33.05624771	1.0
26	-29.37700081	0	0	-0.7516464591	-2.530993938	33.07608032	1.0
[RightHandRing4]
24	-26.47500038	0	0	0	0	0	1.0
25	-26.47500038	0	0	0	0	0	1.0
26	-26.47500038	0	0	0	0	0	1.0
[RightHandMiddle1]
24	-95.32500458	0	0	-2.044101	-1.880972385	34.25464249	1.0
25	-95.32500458	0	0	-2.041279316	-1.946052074	34.2169075	1.0
26	-95.32500458	0	0	-2.103260279	-1.811312914	35.00229263	1.0
[RightHandMiddle2]
24	-36.98199844	0	0	-0.4472450912	-1.987199068	25.36536598	1.0
25	-36.98199844	0	0	-0.4451901615	-1.982827544	25.30569458	1.0
26	-36.98199844	0	0	-0.4429964721	-1.978218913	25.24264526	1.0
[RightHandMiddle3]
24	-29.50900078	0	0	-0.3129993975	-1.677147388	21.16596031	1.0
25	-29.50900078	0	0	-0.3112358153	-1.672585726	21.10551834	1.0
26	-29.50900078	0	0	-0.3093738854	-1.667767882	21.04167366	1.0
[RightHandMiddle4]
24	-28.3390007	0	0.0009999999311	0	0	0	1.0
25	-28.3390007	0	0.0009999999311	0	0	0	1.0
26	-28.3390007	0	0.0009999999311	0	0	0	1.0
[RightHandIndex1]
24	-91.08300018	-5.167999744	22.60099792	-1.044834018	6.310327053	22.40708923	1.0
25	-91.08300018	-5.167999744	22.60099792	-1.074054837	6.231843948	22.8817234	1.0
26	-91.08300018	-5.167999744	22.60099792	-1.170743346	6.306674004	24.02681732	1.0
[RightHandIndex2]
24	-36.76399994	0	0	-0.5662434101	-2.220731735	28.60586166	1.0
25	-36.76399994	0	0	-0.5649830103	-2.218424797	28.57337761	1.0
26	-36.76399994	0	0	-0.5618457794	-2.212665319	28.49210167	1.0
[RightHandIndex3]
24	-28.83100128	0	0	-0.2320267707	-1.448818207	18.1959343	1.0
25	-28.83100128	0	0	-0.2311928421	-1.446299195	18.16310883	1.0
26	-28.83100128	0	0	-0.2291240245	-1.439986348	18.08102608	1.0
[RightHandIndex4]
24	-23.92700005	0	0	0	0	0	1.0
25	-23.92700005	0	0	0	0	0	1.0
26	-23.92700005	0	0	0	0	0	1.0
[RightHandThumb1]
24	-24.64799881	-15.72700024	26.82600021	30.15343666	21.14214134	-10.25145817	1.0
25	-24.64799881	-15.72700024	26.82600021	30.15343666	21.14214134	-10.25145817	1.0
26	-24.64799881	-15.72700024	26.82600021	30.15343666	21.14214134	-10.25145817	1.0
[RightHandThumb2]
24	-32.29800034	-18.64699936	18.64699936	13.14406872	-22.61263466	1.51317358	1.0
25	-32.29800034	-18.64699936	18.64699936	13.46416283	-23.05137825	1.657765388	1.0
26	-32.29800034	-18.64699936	18.64699936	13.7244339	-21.75483513	1.762287259	1.0
[RightHandThumb3]
24	-26.52600098	-15.31399918	15.31399918	-11.90837288	-13.53069878	-10.36866474	1.0
25	-26.52600098	-15.31399918	15.31399918	-11.92276478	-13.4971323	-10.37794781	1.0
26	-26.52600098	-15.31399918	15.31399918	-11.94110107	-13.45357895	-10.39003563	1.0
[RightHandThumb4]
24	-19.54599953	-11.28499985	11.28499985	0	0	0	1.0
25	-19.54599953	-11.28499985	11.28499985	0	0	0	1.0
26	-19.54599953	-11.28499985	11.28499985	0	0	0	1.0
[LeftUpLeg]
24	82.07800293	-67.51699829	-15.99599934	11.08094978	11.26009178	-3.519132853	1.0
25	82.07800293	-67.51699829	-15.99599934	15.29119968	12.65391254	-1.181643486	1.0
26	82.07800293	-67.51699829	-15.99599934	17.81077957	14.79867744	1.546059012	1.0
[LeftLeg]
24	0	-443.7049866	2.845999956	18.95277405	-7.541266441	-4.03978157	1.0
25	0	-443.7049866	2.845999956	17.17975616	-7.885502338	-3.918366432	1.0
26	0	-443.7049866	2.845999956	17.34929276	-8.66735363	-3.967472315	1.0
[LeftFoot]
24	0	-444.2789917	-29.8219986	-29.96935844	-15.16193771	19.7960968	1.0
25	0	-444.2789917	-29.8219986	-22.20702171	-17.34041023	19.40649414	1.0
26	0	-444.2789917	-29.8219986	-8.819146156	-19.86323929	15.96545887	1.0
[LeftToeBase]
24	0	-87.28699493	107.1060028	-11.95632935	-0.03024602123	-0.05055706203	1.0
25	0	-87.28699493	107.1060028	-19.55405426	0.05019977316	0.01961377263	1.0
26	0	-87.28699493	107.1060028	-31.61284637	0.6299338341	1.053231597	1.0
[RightUpLeg]
24	-82.07800293	-67.51699829	-15.99599934	-46.44870377	-1.957541466	-0.3637778163	1.0
25	-82.07800293	-67.51699829	-15.99599934	-46.34481812	0.2482821643	1.922762394	1.0
26	-82.07800293	-67.51699829	-15.99599934	-47.33126831	0.6644169688	4.721511364	1.0
[RightLeg]
24	0	-443.7049866	2.861999989	17.19020081	-6.930905342	-2.757394075	1.0
25	0	-443.7049866	2.861999989	20.9280777	-8.975811005	-3.942145824	1.0
26	0	-443.7049866	2.861999989	30.03822327	-7.384455204	-4.327741146	1.0
[RightFoot]
24	0	-444.2770081	-29.83799934	-0.8402843475	0.2733858824	2.33016777	1.0
25	0	-444.2770081	-29.83799934	15.1949482	-0.0091984272	-6.203380585	1.0
26	0	-444.2770081	-29.83799934	10.43184948	0.6110628843	-5.058701038	1.0
[RightToeBase]
24	0	-87.28699493	107.1060028	-11.20786953	2.277622798e-06	-1.01604769e-06	1.0
25	0	-87.28699493	107.1060028	-12.4599781	-2.341823347e-05	1.494818662e-06	1.0
26	0	-87.28699493	107.1060028	-7.249240398	1.793020783e-05	-1.058341354e-06	1.0
[EndOfFile]
